# xmcd
#
# Track frame offsets: 
#        150
#        15790
#        30845
#        47825
#        63465
#        79142
#        99005
#        112680
#        125545
#        137105
#        150887
#        165042
#        180472
#
# Disc length: 2573 seconds
#
# Revision: 0
# Processed by: cddbd v1.5.1PL0 Copyright (c) Steve Scherf et al.
# Submitted via: ExactAudioCopy v0.95a5
#
DISCID=7e0a0b0d
DTITLE=蔡琴- - 蔡琴-经典珍藏版 DISC1
DYEAR=1900
DGENRE=Classical
TTITLE0=抉择
TTITLE1=不了情
TTITLE2=怀念
TTITLE3=未识绮罗香
TTITLE4=重相逢
TTITLE5=情是什么
TTITLE6=被遗忘的时光
TTITLE7=情人山
TTITLE8=梦里相思
TTITLE9=昨夜你对我一笑
TTITLE10=月光小夜曲
TTITLE11=我有一段情
TTITLE12=今宵多珍重
EXTD=
EXTT0=
EXTT1=
EXTT2=
EXTT3=
EXTT4=
EXTT5=
EXTT6=
EXTT7=
EXTT8=
EXTT9=
EXTT10=
EXTT11=
EXTT12=
PLAYORDER=
